<?xml version="1.0" encoding="UTF-8"?>
<svg id="Layer_1" data-name="Layer 1" xmlns="http://www.w3.org/2000/svg" viewBox="0 0 854.4 427.26">
  <defs>
    <style>
      .cls-1 {
        fill: #fff;
      }
    </style>
  </defs>
  <path class="cls-1" d="M651.31,365.07c1.8.59,1.83-.67,2.39-.95,2.05-1.02,4.31-1.94,6.25-3.17,4.22-2.68,11.07-10.19,15.22-11.25.89-.23,2.93-.31,3.79-.11.39.09.38.77.72.99.45.28,1.11.3,1.48.65,2.71,2.56,1.66,16.42,1.14,20.35l1.25.29,11.2-5.58c1.27-1.9,4.02-3.14,5.36-4.4,2.77-2.62,5.48-8.47,9.89-7.8,3.98.6,1.81,4.94,1.77,7.72-.04,3.17.28,12.53,1.62,14.93.25.46.39.91,1.06.77,2.76-1.11,5.43-2.57,8.01-4.02,7.54-4.21,12.01-9.95,19.02-14.99,1.51-1.08,1.31-3.01,4.09-1.97s3.48,3.1,3.24,6.05c1.44,1.46,9.09-4.06,10.03-5.72.56-.98.33-1.87.76-2.76.2-.4,6.07-5.64,6.52-5.95,2.26-1.58,6.3-1.37,8.11.77l.29,20.21,2.27.48.31,2.54c1.21.67,2.73.21,3.86.45.44.1.39.84.69.99,3.21,1.6,9.58-.3,12.92-1.48,2.21-.79,9.16-3.68,9.93-5.54,1.09-2.64,2.95-7.11,4.28-9.74,1.52-3,3.26-3.39,5.04-5.09.95-.91,1.28-3.08,2.19-4.18.6-.72,5.67-4.69,6.5-5,1.97-.74,3.96-.4,6-.49,2.84,5.88-2.36,15-6.95,18.54-1.12.86-2.21.59-3.47,2.03-1.34,1.52-.93,2.63-1.57,3.93-1.06,2.13-4.2,3.18-3.71,6.04h9.25c1.23,0,3.99-2.3,5.63-2.87.85-.29,1.89.02,2.76-.24,2.07-.6,4.17-4.73,7.79-2.32,1.45,5.38-3.48,5.41-6.61,8.02-.93.78-2,2.83-2.16,2.92-1.22.71-4.92,1.39-6.48,1.91-.69.23-.65.91-1.07,1.04-2.73.81-6.93,1.3-9.62.29-2.1-.78-7.27-5.8-8.76-5.75-.84,0-1.17.92-1.79,1.22-1.56.75-3.33.92-4.56,1.41-6.08,2.4-7.08,3.41-14.12,3.39-1.44,0-4.89.26-5.94-.1-.71-.25-.86-1.24-1.38-1.62-3.93-2.91-8.11-5.84-9.23-11.27-.76-3.69,1.63-9.31-3.92-8.56-.47.13-.96,3.32-1.57,4.02-.67.77-1.83.58-2.6,1.16-1.23.94-2.91,5.46-3.25,5.74-.45.38-2.41.13-2.8.71-.31.47.16,1.6-.58,2.16-.47.36-4.79,1.59-4.96,1.79.68,4.18-4.06,6.14-7.5,5.4-.59-1.37-1.56-8.45-2.8-8.44-2.17.75-6,6.11-7.27,6.72-3.37,1.62-7.03,2.88-10.34,4.66-4.42,2.36-4.66,4.16-10.3,1.02-5.37-2.99-6.6-9.74-6.34-15.41l-11.91,8.44c-2.58.87-10.9,5.42-13.09,4.31-1.18-.59-4.72-7.59-4.96-9.04-.71-4.16,2.08-9.11-.82-12.7-.3-.07-4.03,1.61-4.36,1.95-.71.72-.46,1.98-.97,2.42s-2.56.73-3.71,1.79c-1.82,1.67-3.8,5.46-5.2,7.05-.9,1.02-4.52,2.6-5.94,3.55-1.32.88-3.21,3.39-4.79,3.7-8.11,1.61-5.34-9.3-4.74-13.98-1.36-1.35-4.94,5.29-6.46,5.89-.4,1.24-.2,2.38-1.53,2.97l-8.61,16.53-5.56.13c-.61-.15-.8-1.64-.79-2.21.11-5.59,2.57-15.11,4.61-20.41,1.59-4.16,3.46-2.15,5.86-2.62,5.23-1.02,11.29-17.83,17.74-17.84,1.68,0,4.25,1.58,4.25,3.31v12.25Z"/>
  <g>
    <path class="cls-1" d="M255.31,378.07c-.99-1.03-7.62,5.34-8.49,6.4-3.2,3.87-6.2,11.47-9.33,14.01-1.1.89-2.82,1.39-3.69,2.33-1.61,1.73-1.11,4.85-4.7,4.25-.64-.11-2.17-1-2.5-1.52-1.22-1.89-.65-8.31-.17-10.6.37-1.77,3.95-11.38,4.87-12.63,1.27-1.72,3.17-2.29,5-.97,1.96,1.41,1.41,3.47,1.51,5.49.03.56-.32,1.37.5,1.24.45-2.19,4.2-4.48,4.94-5.79.68-1.22.78-3.65,1.7-4.57.72-.72,3.41-1.53,4.21-2.29s.97-2.29,1.64-3.11c.41-.5,4.33-3.47,4.88-3.62,3.45-.9,4.13.31,5.64,2.49,1.75,2.53,2.74,4.8,2.98,8.14.17,2.37-1.3,12.8.05,13.69,1.51,1,2.32-1.13,2.61-1.29,5.22-2.81,4.24-3.35,8.02-6.99,3.89-3.74,8.63-5.71,12.95-8.67,2.71-1.85,6.13-5.22,9.25-6.99,4.08-2.32,8.85-4.42,13.63-4.52-7.44-8.84.96-13.9,8.04-18.2.88-.53,5.01-3.19,5.32-3.27.79-.21,1.74.16,2.65-.26,1.26-.59.79-2.43,1.05-2.7.19-.19,1.37-.04,1.94-.29,4.79-2.13,7.45-6.91,12.08-9.44,3.33-1.82,10.94-4.84,13.85-1.51.62.71,2.53,5.04,2.61,5.92.05.59-1.33,10.83-1.57,11.35-.39.84-2.11,1.29-2.45,3.18-.16.92-.61,6.1-.57,6.98.09,1.71.47,1.83,1.94,1.41,6.66-1.91,13.87-9.06,20.57-10.44s5.86,4.46,1.62,7.25c-3.21,2.11-9.79,5.14-13.48,6.88-3.91,1.84-13.07,3.88-14.6,7.9-.73,1.94-1.7,11.48-.79,12.77.85,1.21,6.08-.19,7.4-.66,4.7-1.68,14.02-8.91,17.35-12.78,2.25-2.62,2.77-6.7,7.48-5.54,1.57,5.12-.03,8.15-3.42,11.7-5.28,5.52-19.67,16.16-27.28,16.28-4.38.07-9.75-2.9-9.75-7.79v-9.75l-5.43.43c-2.48-5.21,3.86-6.04,6.43-9.18,1.36-1.66,2.44-3.81,3.16-5.84,1.42-4.02,4.5-17.04,4.83-21.18.06-.74.02-1.5.01-2.24-4.84-.55-8.17,3.42-11.7,5.8-5.12,3.46-12.7,7.97-17.09,11.89-5.99,5.35-.47,11.09.22,17.62.64,6.07-.95,16.23-4.72,21.15-5.24,6.84-9.95-.77-11.16-6.27-.75-3.43-.49-6.88-.63-10.37-.32-.97-1.28-.9-2.14-.82-3.71.39-14.17,9.52-17.91,12.12-1.1.76-2.34.76-3.15,1.35-.98.71-1.54,2.78-2.24,3.65-2.94,3.65-7.66,7.6-11.82,9.79-1.09.57-6.66,3.04-7.41,3.06-1.75.06-4.75-2.35-4.75-4.23v-20.25Z"/>
    <path class="cls-1" d="M524.31,356.07c-.77-.11-1.17,0-1.78.47-1.17.91-5.02,5.09-6.2,6.41-1.05,1.17-1.76,3.35-3.26,4.63s-5.4,2.91-6.63,4.12c-3.11,3.07-2.82,7.68-9.01,9.23-1.72.43-3.92-.02-4.6-1.76-.58-1.51.24-6.13-2.24-5.63-.11.02-1.58,1.57-1.65,1.67-.35.57-1.29,3.54-2.12,4.12-.65.45-2,.03-2.82.68s-.46,1.8-.83,2.42c-.44.71-3.22,1.78-3.84,2.41s-1.32,2.59-2.26,3.74c-2.57,3.14-11.1,7.76-14.74,5.22-1.48-1.04-3.64-6.71-3.57-8.66-2.4-1.22-2.65,1.21-3.5,2.1-2.45,2.56-8.69,5.99-12.31,6.72-3.21.64-4.01-1.69-4.56-4.32,1.53-1.02,3.32-1.84,4.81-2.91,2.16-1.54,4.96-4.12,7.18-5.34.89-.49,4.44-1.48,4.83-1.93.6-.7.96-3.73,3.09-6.15,2.55-2.89,2.07-2.59,3.77-5.72.43-.79,1.48-.84,1.64-1.12.39-.68-.08-2.66.54-3.61l2.02-.34.07-1.38,4.97-.07c.16,2.99-.03,6.95-1.51,9.61-.65,1.18-3.39,1.37-3.96,4.67-.22,1.25-.25,7.3.07,8.37.9,3.02,5.98-.46,7.76-1.52,4.1-2.43,2.22-1.63,4.11-4.91,1.19-2.07,5.58-3.65,7.32-5.68.93-1.08,1.73-3.66,2.35-4.41.48-.59,3.56-1.88,3.76-2.24.33-.6-.11-1.72.33-2.42s2.05-.54,2.66-1.1c1.62-1.51.45-4.09,4.85-3.9,5.57.24,3.37,4.37,4.49,6.05,1.41,2.11,2.92-1.05,3.52-1.53,3.82-3.04,6.5-6.55,10.33-9.67,1.44-1.17,8.74-6.57,9.94-7.05,4.28-1.73,5.59,2.61,5.92,6.04.56,5.79-1.85,10.98-2.88,16.49-.83,4.41-.77,12.61-3.32,16.18-3.38,4.7-5.51-3.48-5.75-6.21-.66-7.55,2.58-14.42,3.02-21.76Z"/>
  </g>
  <path class="cls-1" d="M443.26,17.63c4.32,9.11-6.04,7.81-11.72,10.39-.33-1.38-2.46-1.61-2.97-2.46-.79-1.31-.48-4.98,1.26-5.73l13.43-2.2Z"/>
  <path class="cls-1" d="M739.25,307.01c-.12.21-3.96,2.38-4.29,2.45-1.44.31-2.93-.06-4.37.13-.84.11-1.38,1.04-2.47.99-4.81-.21-6.67-9.16,1.94-8.5,1.33.1,7.83,2.51,8.75,3.26.54.44.77,1.12.45,1.68Z"/>
  <path class="cls-1" d="M508.99,330.88c1.59,1.09,3.81,1.9,1.87,4.48s-14.85,2.13-11.98-4.74c2.58-.9,5.98-1.57,8.7-1.07,1.15.21,1.02,1.05,1.41,1.32Z"/>
  <g>
    <path class="cls-1" d="M247.81,219.07c-3.08-.27-4.98,1.88-6.5,4.25-.59.91-.51,2.54-1.48,3.01s-2.38-.01-2.93.32c-.17.1-1.29,2.95-1.71,3.55-1.47,2.11-4.94,2.7-5.61,3.87-.74,1.28.56,3.1-1.5,3.5-8.44,1.63-5.71-3.06-5.71-7.75,0-1.39-.33-5.73-.56-6.99-.15-.79-.59-1.28-1.24-1.7-1.4,1.14-3.07,1.84-4.49,2.95-3.34,2.61-4.91,4.39-8.67,6.44-2.49,1.36-7.17,4.09-9.85,4.09-1.05,0-5.71-1.17-6.29-1.76-.4-.41-2.74-4.08-2.84-4.65-.47-2.63,1.23-6.99-2.8-6.05l-15.04,15.95c-3.83,2.28-8.24-1.77-7.26-5.68.09-.37.85-.29.96-.7.35-1.27.16-4.57.65-5.52.11-.21,2.37-3.72,2.54-3.94,1.08-1.37,6.05-3,2.07-5.71-.27-.02-3.79,1.32-4.35,1.58-2.88,1.32-5.93,5.08-9.2,6.91-1.6.89-5.97,1.99-7.06,2.69-.48.31-.62,1.58-2,2.25-1.74.84-4.7,1.14-6.51,2.23-3.1,1.88-6.68,3.06-10.27,4.49-9.87,3.92-16.82-.23-14.14-11.14.41-1.65,3.37-6.84,2.71-7.9-6.31-1.52-10.78-5.77-14.18-11.06-1.82,1.85-3.63,3.88-5.23,5.9-2.61,3.29-5.19,7.08-7.39,10.47-2.69,4.15-5.55,13.95-11.52,12.02-1.6-3.92-.71-8.47-.07-12.59.21-1.35,1.84-2.6-.03-3.29-.64,2.73-3.21,3.61-5.01,5.24-4.87,4.42-14.06,12.93-20.23,14.77-5.49,1.64-9.33-.59-9.7-6.33-.15-2.25.16-7.16.44-9.43.46-3.69,2.25-7.4,1.75-11.25-7.61,10.93-14.42,22.64-23.72,32.27-2.04,2.12-8.06,8.01-10.35,9.15-6.3,3.15-6.76-5.82-6.06-10.06,1.2-7.24,14.91-24.43,21.26-28.35,3.95-2.44,8.47-2.87,12.07-4.83s6.94-9.04,9.03-12.57c2.31-3.9,4.14-8.1,6.54-11.85,1.38-2.15,2.54-4.22,5.26-4.28s3.41.99,3.12,3.62c-.6,5.44-5.41,16.42-7.18,22.36-.81,2.71-4.21,12.61-4.21,14.79v8.75c.55.01.96.34,1.54.24,2.9-.5,11.75-7.02,14.23-9.23,5.22-4.66,11.92-17.05,20.2-12.73,1.15.6,1.15,2.14,2.9,1.39.48-.2,5.73-6.47,7.04-7.66,1.56-1.43,5.69-4.93,7.47-5.39,6.21-1.61,5.09,2.05,6.94,5.82.89,1.82,3.48,4.99,5.55,5.45,8.76,1.95,9.25-7.09,13.39-11.9,1.67-1.95,5.48-5.17,7.69-2.68,1.15,7.22-2.85,14.84-8.63,18.98-2.51,1.8-5.66,1.81-6.27,5.48-.24,1.44-.93,11.29-.53,11.72,3.48-.95,7.1-2.03,10.48-3.27,17.73-6.52,31.47-16.86,47.66-25.74,2.7-1.48,3.95-2.85,7.64-3.01,2.88-.12,2.44,1.46,1.47,3.52-1.88,3.99-9.71,10.88-12.74,14.9-.85,1.13-1.81,2.04-1.51,3.6l3.93-.57.32-2.93c3.66-1.91,7.02-8.81,11.89-6.39.16.08,2.27,2.6,2.33,2.77,1.41,3.88-.94,8.59.29,12.63,4.32-1.32,9.17-2.1,13.11-4.37,2.1-1.21,2.67-3.37,3.86-4.16.83-.55,1.81-.46,2.81-1.19,1.18-.86,1.96-3.07,3.19-3.81,1.59-.95,4.36-.61,6.06-1.99.67-.41,3.65,2.63,3.71,2.87.67,2.5-.68,6.44.44,9.46.2.53-.25.87.77.66,8.52-4.78,14.2-16.19,25.34-14.68,1.04,4.86,1.62,9.96-.05,14.71,1.86.22,3.39-.49,5.02-1.23.93-.42,9.29-5.3,9.67-5.72.63-.69.1-1.64.37-1.98.14-.17,1.51-.21,2.14-.62.78-.51.96-1.57,1.52-1.98.74-.54,1.77-.42,2.56-.94s2.19-3.03,2.94-3.54c2.86-1.97,1.64-.22,4.5-3.52,2.28-2.63,8.87-3.9,12.24-3.41.57,2.94,1.48,6.2,1.09,9.23-.04.28-1.72,2.79-1.92,4.09-.32,2.12.18,4.4-.14,6.35-.22,1.29-1.28,2.01-1.38,2.61-.13.75.87,1.51.88,2.41s-1.01,1.91-1.02,3.5c-.02,3.04,1.51,6.71,1.03,9.92.18.79,4.82,1.82,5.77,1.83,2.17.02,3.62-2.01,6.12-2.37,8.27-1.19,4.77,4.35.29,6.79-3.15,1.71-10.42,3.26-13.9,2.58-1.58-.31-2.23-2.81-3.26-4.24-.56-.79-1.65-1.01-1.99-1.63-.22-.41-1.44-7.32-1.53-8.34-.62-7.33.4-14.61,1.52-21.77-1.29.02-2.8.22-3.96.8-2.93,1.49-9.15,8.54-12.25,11.01-3.9,3.1-6.84,3.93-10.89,6.23-1.9,1.08-5.39,4.79-7.25,5.35-1.03.31-3.08.32-3.94-.35-.21-.16-2.2-4.53-2.2-4.8v-10.75ZM32.81,221.07l-4.27,1.98c-2.37,6.47-9.43,8.9-12.1,14.9-.39.87-.57,2.96-.69,3.07-.25.23-2.16-.15-2.44.81-.81,2.85,4.71,1.22,5.26.26.45-.8.06-2.03.49-3.01.4-.91,1.69-1.14,2.26-1.88.8-1.06,1.31-3.21,2.2-4.16.83-.89,2.04-.94,2.84-1.68,1.32-1.23,7.63-9.04,6.45-10.28Z"/>
    <path class="cls-1" d="M349.73,198.15c.52.85-.51,6.11-1.17,6.91-.47.56-1.6.61-2.27,1.23-1.25,1.13-1.86,3.43-2.6,4.15-.64.63-2.01.83-3.13,2.12-5.05,5.78,1.7,13.56,3.14,19.39.72,2.92,1.1,11.77-2.35,12.91-4.17,1.37-8.37-.34-11.63-2.81-2.94-2.22-5.1-4.33-2.91-8.1,1.6-2.75,4.52-2.15,7.01-.87-.86-7.74-4.32-16.44-1.37-24.11.87-2.27,2.48-3.28,3.79-5.22,1.56-2.31,1.24-4.75,4.58-5.92,1.8-.63,7.88-1.36,8.91.34Z"/>
  </g>
  <g>
    <path class="cls-1" d="M459.81,81.57c.9.88,8.81-2.14,10.12-3.03,1.11-.76,1.35-2.19,1.9-2.69.87-.82,2.68-1.09,3.62-1.79,1.81-1.37,8.17-6.54,8.76-8.35.27-.84-.17-2.38.59-2.91.48-.33,1.71-.15,2.49-.51,4.09-1.9,8.52-6.4,7.01,3.01-.41,2.52-4.57,4.23-6.5,6.01-2.62,2.42-4.54,6.5-6.86,8.77-3.34,3.27-18.46,11.79-22.88,12-2.07.1-4.17-.46-5.2-2.39-1.18-2.23-4.34-14.15-4.02-16.32.16-1.13,1.2-2.03.98-3.28-1.3-1.79-6.87,4.67-7.35,6.01-3.86,2.07-9.31,11.18-12.78,12.61-7.14,2.92-6.18-8.5-5.37-12.62l-2.48.02c.39,3.84-3.85,4.75-5.83,7.16-.74.9-.8,2.09-1.73,3.02-1.13,1.13-2.77,1.1-4,2-1.34.98-2.52,3.62-3.86,4.79-3.04,2.66-7.16,3.9-11.1,2.99-.94-.9,2.19-17.88,3-20.23.36-1.05,1.23-1.58,1.52-2.48,1.39-4.37,2.17-8.96,4.1-13.14l5.83-1.6c-.04,1.44,1.66,2.4,1.94,3.32,1.29,4.25-3.22,7.7-4.55,11.24-.97,2.6-1.57,5.63-1.35,8.4.69.7,4.7-2.58,5.32-3.18,3.88-3.7,9.99-13.59,14.56-15.19,7.9-2.77,7.87,2.03,7.12,8.37,2.01.25,3.7-.02,5.15-1.48,3.5-3.52,7.59-8.85,12.24-11.37,1.35-.73,4.69-2.4,5.87-1.16,2.26,2.38,3.19,19.87,3.74,24.02Z"/>
    <g>
      <path class="cls-1" d="M564.67,28.47c-.37.26-1.25-.16-1.39.38.29,7.28-5.87,12.87-5.46,20.21,1.51.31,1.17-1.39,1.64-1.85,2.45-2.4,3.08-3.2,5.37-5.88,3.4-3.98,8.78-7.87,14.26-7.77,3.09.06,2.95,2.11,3.85,4.15,1.97,4.46,1.01,4.56,1.39,9.11.44,5.15,3.19,10.55,2.5,16.02-.23,1.81-1.44,2.5-1.56,3.98-.4,4.9.89,7.27-.7,13.25-2.45,9.18-5.43,14.41-10.32,22.18-1.14,1.81-9.07,7.97-11.16,8.84-7.05,2.93-10.98-4.1-6.14-6.64,4.16-2.19,6.93.04,10.87-4.63,10.75-12.71,13.48-39.56,9.27-55.27-.26-.96-1.18-2.39-2.09-2.92-1.13-.21-4.63,2.97-5.44,3.93-1.39,1.66-1.76,3.46-2.73,4.77-.71.96-2.04,1.34-2.78,2.22-3.21,3.78-3.17,4.92-7.26,8.23-.71.58-1.42,2.08-1.59,2.18-.53.29-1.48-.09-1.8.18-.24.2-.05,1.34-.54,1.7-1.25.92-4.9.24-5.43-1.63-.17-.59-.6-4.18-.6-4.9-.02-4.59,5.65-21.6,7.89-26.11.65-1.31,2.55-2.19,2.62-2.5.36-1.61-.32-4.77,2.34-5.54.95-.28,4.93-.34,5.43.36s.23,3.48-.42,3.93Z"/>
      <path class="cls-1" d="M780.82.07c.03.69.15.96-.34,1.52-4.83,5.52-10.7,5.17-16.68,7.21-2.43.83-3.2,3.46-4.49,4.01-.99.42-2.16.08-3,.5-.46.23-1.28,2.35-3.04,3.46-2.82,1.77-1.66,1.36-3.7,3.3-1.72,1.64-5.12,2.06-6.52,3.48-.78.79-1.28,2.56-2.22,3.63-5.48,6.19-12.68,12.07-15.53,20.12-1.07,3.01-1.41,6.11-2.36,9.14-1.34,2.01-2.66,2.3-4.7,1.11-3.66-2.15-2.69-10.42-3.64-14.49-.38-1.64-2.39-7.3-4.01-7.5-.42-.05-7.52,1.91-8.09,2.18-1.07.53-3.84,4.58-4.89,5.62-3.85,3.81-10.27,10.24-16,10.22-7.8-.03-7.57-7.86-9.58-13.54-1.48.13-3.2-.36-4.48.49-1.48.98-2.76,5.53-3.85,6.4-.83.66-3.52,1.13-4.98,2.14-2.59,1.81-4.37,6.44-9,3.98-3.23-1.71-2.62-13.73-2.39-17.23.07-1,2.13-11.77,1.24-11.76l-22.26,8.74c-1.9,2.28-.17,3.62-.02,5.56.68,8.96-3.17,21.43-12.62,24.33-3.53,1.08-6.36-2.98-7.21-6.01-1.23-4.39.03-14.99,2.08-19.14.99-2.01,3.86-3.96,4.28-4.83.89-1.84.03-3.08,2.25-4.65,1.63-1.15,2.67-.74,4.1-1.4,5.84-2.68,7.94-2.61,13.75-4.25s13.78-5.7,19.27-6.74,5.91,3.47,5.65,7.66l-2.78,18.24c.49.77,1.83.2,2.49-.03,3.76-1.34,8.48-8.74,11.96-11.28,1.89-1.38,7.57-4.49,9.57-2.7,2.87,2.56,1.01,9.46,1.22,13.28.09,1.61.56,3.11.53,4.72,4.32,1.07,4.78-1.82,7.4-3.99,1.75-1.45,5.05-3.2,6.42-4.68.84-.91,1.45-3.05,2.19-3.56,1.3-.9,4.86.07,5.41-.84.47-.77-.65-3.22,1.42-3.83,2.91-.85,10.33.07,13.82-.52.4.13,2.62,3.31,3.03,3.97,1.4,2.26.37,4.27,4.26,3.39.27-.83.2-2.12.7-2.8,1.23-1.69,4.88-.48,3.89-4.1,3.75.08,2.97-2.06,4.47-4.17,2.71-3.8,7.62-5.68,10.8-9.08.25-.27.07-1.05.48-1.33.67-.45,2.03-.26,2.97-.94.79-.57,1.52-2.74,1.83-2.92.59-.32,1.63.1,2.39-.35.49-.29.56-1.43,1.32-1.68.85-.28,1.91.08,2.81-.1.74-.14,1.37-2.18,1.71-2.49,1.52-1.36,3.12-.7,4.69-1.21,5.84-1.86,11.58-4.84,17.97-4.28ZM617.12,49.89c.64-1.62,1.95-10.2.72-11.1l-1.52-.22c-1.67,4.62-3.54,8.88-3,14,.67.02,1.38.09,2.01-.24.13-.07,1.74-2.3,1.8-2.44Z"/>
    </g>
  </g>
  <g>
    <path class="cls-1" d="M305.31,82.07c.34,3.06-.23,6.49-3.05,8.2-1.11.68-7.32,2.4-8.82,2.68-2.56.47-5.86.25-8.27.73-1.89.38-3.73,2.92-5.75,3.75-3.96,1.61-9.68.82-13.26-1.47-1.24-.79-1.15-2.14-1.43-2.32-.56-.35-2.15.28-2.71-.55-1.19-1.75.78-18.47-.72-19.53-6.54,4.7-12.96,15.63-21.82,15.96-.85.03-4.02-.41-4.44-.95-1.37-1.8-1.84-10.62-2.28-10.97-2-.8-2.42,1.4-3.62,2.27-2.68,1.95-4.26,3.03-6.6,5.66-3.7,4.15-2.47,3.96-7.67,6.83-2.44,1.35-3.24,2.98-6.51,2.14-.29-1.84-.19-2.35-2.09-2.73.16-2.82-.1-5.67.01-8.49.02-.57,1.34-5.37-.22-4.73-6.5,6.58-14.87,14.56-24.97,12.96-3.02-.48-2.06-3.77-4.42-3.4-2.03.32-4.78,6.01-6.9,7.65-2.94,2.28-9.66,5.1-10.82-.09-2.81-12.53,12.12-33.45,20.56-42.43,3.39-3.61,8.34-8.78,13.72-6.62,1.06,6.09-4.38,9.04-8.43,12.18,2.35.5,6.86,1.5,5.9,4.87-.21.73-1.05,1.28-1.29,2.23-.86,3.48-1.06,7.38-1.63,10.87-.16.97-2.03,3.77-.2,4.27,1.97.54,2.57-2.04,3.06-2.52.8-.78,2.79-1.12,3.92-1.97,1.5-1.13,2.27-3.22,3.81-4.67,2.02-1.9,4.93-3.29,6.94-5.08,2.81-2.51,6.58-9.49,10.94-5.45,2.24,2.08,1.79,8.83,1.56,11.95-.08,1.08-2.06,6.36,1.02,3.37,4.59-4.45,5.67-7.96,12.21-11.64,2.48-1.4,7.75-3.35,10.52-3.49,1.06-.05.64.01.75.75.72,4.91.47,9.57,0,14.48l1.26.29c3.11-3.01,6.21-6.16,9.5-9.01,1.26-1.1,3.4-1.93,4.77-3.23,3.67-3.5,5.01-8.42,10.34-10.66,6.47-2.72,9.05-1.65,8.11,5.61-.45,3.44-2.63,6.66-3.71,9.79-.58,1.67-2.8,8.03-2.82,9.24-.02,1.47,1.13,1.68,1.44,2.61.42,1.24.2,3.18,1.29,4.46,2.22,2.6,13.29.75,16.55-.35,2.6-.88,6.24-3.47,9.03-3.47h7.25ZM180.11,66.86c.67-1.28,2.68-2.9,1.96-4.29-1.89.57-5.31,6.82-5.75,8.99l3.79-4.7Z"/>
    <path class="cls-1" d="M120.31,18.57c-.85,2.83-.02,6.33-1.24,9-.64,1.4-1.65,1.41-2.15,2.35-.85,1.64-.35,4.09-.73,5.77-1.26,5.58-5.04,11.52-7.05,16.95-1.71,4.63-3.36,9.38-5,14-.93,2.62-2.83,4.71-1.61,7.94.49.85,3.53-1.46,4.16,1.86.25,1.34-.61,4.22-1.63,5.12-.71.62-2.32.86-2.93,1.46-.43.42-.23,1.15-.45,1.37-.5.5-3.67,1.75-4.5,1.58-3.12-.65-4.29-3.77-3.9-6.71.12-.89.86-.63,1.11-1.41,1.46-4.55,2.18-11.92,4.44-15.91.41-.72,1.76-1.14,2.21-2.42.54-1.51.3-3.3.93-5.07,2.83-8.01,8.22-16.96,11.01-25.49,1.05-3.21,1.96-7.05,1.84-10.41h5.5Z"/>
  </g>
  <g>
    <path class="cls-1" d="M471.81,174.57v7.25c0,2.01-2.72,10.53-3.53,12.97-.38,1.13-2.99,6.25-2.47,6.78,5.31-.8,11.12-1.27,13.7,4.55,1.77,4.01-1.18,9.19,5.94,6.83.82-.27,1.14-1.29,2.12-1.39.36-.04,6.78.55,7.12.66,1.22.39,3.78,6.36,4.01,7.71.88,5.1-2,9.71-1.39,14.9.98,8.3,8.54-1.74,10.75-3.78,3.37-3.11,6.44-4.84,8.98-9.03.92-1.51-.5-2.77,3.24-1.97.73-4.23,6.31-9.35,10.72-7.91l.82,1.18-1.95,21.42,1.09.74c.99-.36,2.05-.47,3-.92,3.62-1.71,16.02-16.55,17.23-20.37.25-.8-.06-2.27.21-2.57.12-.13.86.01,1.22-.24,1.93-1.32,10.19-15.41,11.64-18.13.75-1.41.64-2.6,1.85-4.15,2.23-2.85,6.9-5.02,8.57-.65,2.22,5.81-1.7,13.13-1.36,19.11.41.4,4.96-1.53,5.84-1.91,3.87-1.66,11.66-7.16,14.64-7.86,1.85-.43,3.7.1,5.39-.61,1.57-.67,5.36-4.1,7.52-5.08,3.47-1.58,10.62-4.59,12.61-.05-3.06.41-2.89,3.51-5.73,5.03-6.26,3.36-13.34,6.22-19.87,9.53-2.6,1.32-5.69,4.03-8.54,5.06-1.21.44-2.51.17-3.24.52-.23.11-1.54,2.13-1.97,2.37-1,.55-1.95.38-3.17,1.22-8.73,5.99-3.46,19.2-9.63,26.12-.6.67-3.48,2.28-4.34,2.43-2.52.42-2.82-1.41-4.05-3,.39-2.97,3.87-13.03,2.33-15.29-1.74-2.55-6.96,3.48-8.16,4.5-.72.61-2.41,1-3.11,1.8-.5.57-.43,1.51-.58,1.65-.33.3-2.31-.24-3.71.55-1.92,1.09-4.81,5.67-6.93,7.34-1.89,1.49-8.68,5.29-10.88,5.84-2.4.6-3.44,0-5.41-1.41l1-.56v-1.68s-1.98-.02-1.98-.02c.06-2.02-1.11-4.28-1.05-6.22.06-1.66,1.11-2.94,1.04-5.01-.05-1.47-2.83-.67-3.39-.12-.51.49-1.39,2.72-2.3,3.7-3.74,4.03-9.36,6.32-12.86,9.38-.74.65-1.24,2.19-1.96,2.55-1.11.54-5.21.34-6.54.03-2.83-.67-3.48-3.52-4.52-5.88-1.73-3.95-2.23-7.99-1.94-12.64.14-2.25,2.38-7.35-.76-7.3-.86.01-7.9,4.75-8.14,5.17-.27.46.05,1.27-.22,1.75-.19.33-2.14,1.2-2.71,1.81-1.89,2.01-1.5,5.1-1.7,5.3-.1.1-1.44-.09-2.26.48-1.15.8-1.87,3.78-3.01,4.99-1.08,1.15-2.75,1.33-3.48,2.02-3.99,3.77-3.57,4.72-9.12,7.89-.72.41-.94,1.32-1.5,1.62-4.23,2.24-9.27-.16-9.1-5.13,2.12-2.61,3.45-5.73,5.97-8.11,1.87-1.76,4.42-2.88,5.85-4.41,1.74-1.87,2.75-3.29,4.77-5.34,4.58-4.64,5.73-4.7,7.93-11.12.12-.35.97-.36.97-.67,0-.44-.5-1.05-.45-1.5.22-2.23,1.27-4.72-1.09-6.41-2.79-2.01-2.8.05-4.01.91-6.74,4.79-6.32,7.8-8.68,14.82-1.92,5.69-10.1,4.03-9.77-1.23.18-2.82,5.48-11.44,6.79-15.26.75-2.19,1.09-5.88,1.83-7.68.46-1.11,2.41-1.85,3.41-4.58,2.04-5.63,3.6-17.93,8.01-21.49,1.22-.99,2.86-1.81,4.46-1.79Z"/>
    <g>
      <path class="cls-1" d="M697.65,181.91c-.19.31-.96.5-1.25.97-2.03,3.34-4.59,7.11-4.34,11.18,3.67-1.75,6.16-5.46,9.15-7.99,3.54-3,11.95-10.14,16.35-10.05,7.22.16,8.12,9.68,7.69,15.22-1.07,13.67-6.55,36.14-10.35,49.65-2.46,8.75-5.09,15.49-11.2,21.67-1.55,1.56-1.79,2.97-2.51,3.87-.42.52-2.27.71-2.87,1.38-.49.54-1.06,2.59-2.01,3.85-1.18,1.56-2.83,2.04-4.01,3.13-1.59,1.47-4.71,5.55-6.84,6.16-.7.2-6.4.33-6.63.09-.15-.16.16-1.41-.24-2s-1.87-.34-2.21-1.3c-1.26-3.59,4.29-6.23,7.31-6.58.88-.1,2.05.61,2.55.33.15-.09,1.05-2.26,1.82-2.95,1.45-1.32,4.61-2.62,6.05-4.44,1.15-1.46.4-3.04,1.25-4.27.63-.92,2.25-.88,3.2-2.3s1.31-4.05,2.34-5.66c2.73-4.27,3.28-4.06,4.9-9.6,4.68-16.02,10.87-37.42,9.05-54-.08-.76-.05-1.24-.77-1.72-.35,0-2.82,3.4-3.55,3.92-1.43,1.01-4.73,2-6.03,3.24-.58.55-1.93,3.2-2.67,3.56-.89.43-2.09.1-2.42.36-.18.14-1.19,3.46-1.75,4.26-1.42,2.03-2.61,1.28-4.11,2.13-.97.55-2.08,2.6-3.25,3.24-2.71,1.47-6.9-.06-8.08-2.84s-.28-12.51,1.29-15.21c2.01-3.45,2.93-6.13,4.74-9.5s5.63-8.62,9.85-5.17c2.36,1.93.94,5.14-.42,7.34Z"/>
      <path class="cls-1" d="M792.82,178.57c2.2.38,3.33-2.4,4.49-3.24,3.8-2.73,4.36-2.97,7.84-6.45,2.72-2.73,8.15-8.35,11.89-9.83,8.08-3.2,9.39,1.91,8.25,8.75-.12.72-.77,1.28-.93,2.08-.82,4.25-4.35,17.64-1.41,20.56,2.16,2.16,3.54.45,5.14.17,5.18-.92,2.94-1.12,6.38-2.62,1.67-.73,4.01-.82,5.52-1.98.91-.7,1.13-1.97,2.18-2.32,3.15-1.06,8.71-1.21,12.14-2.11.44,2.87-.73,5.56-3.24,6.99-1.01.57-2.05.55-2.94,1.08-1.93,1.15-2.65,3.42-5.3,2.43l-.88,2.51c-3.9.31-7.09,2.93-10.64,4.24-3.08,1.13-8.5,2.59-11.64,1.66-.77-.23-1.64-1.53-2.38-2.13-.54-.44-1.44-.48-1.83-.91-.23-.26-.17-.95-.44-1.28-1.29-1.58-2.32-2.35-2.67-4.85-.48-3.39.93-5.08,1-7.49.07-2.65-.41-5.23.31-8.14.31-1.25,1.6-2.45,1.65-3.91.04-.93-.75-2.36-1.7-2.17-.26.05-2.18,2.94-2.86,3.65-4.68,4.93-9.87,9.97-14.68,14.85-2.14,2.18-8.54,6.78-11.55,5.58-.39-.16-3.55-3.09-3.57-3.34,1.09-3.17,2.05-6.85,2.73-10.13.34-1.64.77-3.35,1.08-4.92s2.13-11.58,1.55-12.2c-2.61.2-5.08,1.23-7.44,2.3-3.24,1.48-6.33,2.86-9.67,4.33s-6.59,3.33-7.68,6.9c3.97,3.84,7.51,14.36,6.16,19.59-.3,1.16-4.83,6.66-6.01,7.54-3.42,2.57-12.31,5.92-15.83,2.55-.61-.58-.56-1.42-1.02-2-.37-.47-1.27-.58-1.41-.82-.48-.8.17-2.96-.1-4.05-.18-.77-3.6-1.1-3.49-4.05s6.91-12.32,9.48-14.55c-2.1-1.15-2.81-3.66-2.52-6.02.67-5.43,12.16-8.04,16.18-10.32,1.72-.97,3.31-3.55,4.19-3.81,1.71-.5,4.08.3,5.79-.21,2.74-.8,7.86-5.06,9.75-5.86.76-.32,6.7-1.5,7.29-1.4.74.13,2.44,1.77,3.82,1.61.4.29,1.35,2.88,1.47,3.53.52,2.88.51,9.07,0,11.94-.23,1.31-3.23,7.48-2.47,8.27ZM756.32,185.57c-4.39-1.11-3.72,6.09-4.1,9.15-.1.83-1.59,1.85-.08,2.27,2.42.68,4.27-.55,4.94-2.91.74-2.65-.51-1.65-.91-2.61-.88-2.1.3-3.78.16-5.9Z"/>
    </g>
  </g>
  <path class="cls-1" d="M38.81,404.07c7.2-1.92,15.08-6.59,19.91-12.32.8-.94,1.59-3.22,2.3-3.72.94-.67,2.31-.26,3.1-.91.63-.52.43-1.8,1.04-2.06,1.41-.58,6.95-1.37,8.32-.91,2.16.72.41,7.05,3.35,5.19.38-.24,4.04-6.21,5.08-7.45.68-.81,3.47-2.92,3.66-3.31.55-1.13-.07-2.67.34-3.41.15-.26,2.73-1.39,3.36-1.88,4.41-3.44,6.47-6.3,12.54-2.36.1,2.8-.14,5.63-.03,8.42.06,1.54,1.47,1.96.03,4.22,2.61,1,9.07,2.51,11.51,1.27.56-.28,3.46-5.55,4.19-6.56,1.69-2.35,3.81-4.71,5.48-7.27.54-.82,1.13-2.96,1.45-3.3.52-.54,1.74-.38,2.36-.9.54-.45.63-1.57,1.22-2.27,1.84-2.16,4.34-1.01,6.72-.4.22.34.19,7.31-.04,8.08-.4,1.37-2.49,1.74-2.81,2.68-.45,1.33.32,3.24-.22,4.54-.17.42-5.46,6.52-5.88,6.85-1.03.81-2.5.58-3.28,1.23-.64.53-.5,1.52-.83,1.9-.42.49-1.7.44-2.13,1.13-.7,1.15-.47,8.99.73,10.16.32.31,6.21,2.73,6.83,2.84,3.1.55,6.28-.77,8.94-.99,2.88-.23,6.23.35,9.02.02,3.32-.4,4.55-1.78,9.01-1.54,1.48.08,7.7.92,7.73,2.77-1.27.83-2.88,2.77-4.38,3.13-1.27.31-2.59-.11-3.78.22-.84.24-1.5,1.47-3.22,1.78-1.27.23-3.01-.14-3.83.08-.53.15.08,2.09-2.59,2.5-4.63.72-11.75.76-16.49.55-2.15-.09-7.41-.35-9.14-.85-2.81-.82-6.82-4.98-7.8-7.7s-.45-5.28-.85-7.9c-4.95-.83-10.65-2.3-13.65-6.59-.55-.78-3.47-8.04-4.27-7.47-.02.57-.33,1.14-.72,1.53-7.72,7.63-11.17,16.5-17.62,24.83-.83,1.07-3.79,3.79-5.07,3.04-.21-.12-.41-1.05-.8-1.42-.51-.48-1.71-.94-1.8-1.32-.48-1.95,1.42-12.3-.25-12.65-2.13.93-3.51,3.81-5.23,5.26-3.8,3.2-9.44,6.32-13.68,8.82-2.19,1.29-2.47,2.79-5.71,3.29-7.89,1.22-11.39-2.69-10.62-10.37-2.13-2.05-7.35,6.53-8.49,7.76-1.56,1.7-4.17,3.03-5.35,4.39-1.57,1.81-3.7,5.98-5.63,7.63-.95.81-2.66,1.09-3.38,1.87-1.53,1.65-.73,3.68-4.9,2.85-4.38-.87-2.04-9.23-.98-11.98,4.26-11.1,7.71-16.32,14.74-25.26,2.5-3.18,4-5.5,6.73-8.26,1-1.01.03-2.54,2.73-2.02-.59-3.34,4.15-3.25,6.47-2.66,3.02.77,2.14,4.22,2.68,6.3s3.88,2.99,3.88,3.62v17.25ZM28.81,387.07c-1.94-.45-2.41,1.99-3.18,2.82-1.55,1.65-6.51,4.56-6.78,4.97-.53.78-1.04,4.08-1.52,5.48-.33.94-2.89,4.09-1.26,4.73.36.14,2.02-1.57,2.17-1.8.66-1.04,1.47-4.45,1.64-4.63.26-.27,2.4-.05,2.83-.68.24-.35.06-1.34.58-2.15.85-1.32,6.8-7.38,5.52-8.74Z"/>
</svg>